<?xml version="1.0" encoding="UTF-8" standalone="no"?>
<!-- Created with Inkscape (http://www.inkscape.org/) -->

<svg
   xmlns:dc="http://purl.org/dc/elements/1.1/"
   xmlns:cc="http://creativecommons.org/ns#"
   xmlns:rdf="http://www.w3.org/1999/02/22-rdf-syntax-ns#"
   xmlns:svg="http://www.w3.org/2000/svg"
   xmlns="http://www.w3.org/2000/svg"
   xmlns:sodipodi="http://sodipodi.sourceforge.net/DTD/sodipodi-0.dtd"
   xmlns:inkscape="http://www.inkscape.org/namespaces/inkscape"
   width="1000"
   height="450"
   viewBox="0 0 264.58333 119.06251"
   version="1.1"
   id="svg8"
   inkscape:version="0.92.5 (2060ec1f9f, 2020-04-08)"
   sodipodi:docname="logo.svg"
   inkscape:export-filename="/home/mhr/dev/web/whatisitcalled.in/frontend/public/img/logo.png"
   inkscape:export-xdpi="64.002266"
   inkscape:export-ydpi="64.002266">
  <defs
     id="defs2" />
  <sodipodi:namedview
     id="base"
     pagecolor="#ffffff"
     bordercolor="#666666"
     borderopacity="1.0"
     inkscape:pageopacity="0.0"
     inkscape:pageshadow="2"
     inkscape:zoom="1.28"
     inkscape:cx="432.59761"
     inkscape:cy="258.77924"
     inkscape:document-units="mm"
     inkscape:current-layer="g4947"
     showgrid="false"
     units="px"
     inkscape:window-width="1916"
     inkscape:window-height="693"
     inkscape:window-x="1920"
     inkscape:window-y="18"
     inkscape:window-maximized="0" />
  <metadata
     id="metadata5">
    <rdf:RDF>
      <cc:Work
         rdf:about="">
        <dc:format>image/svg+xml</dc:format>
        <dc:type
           rdf:resource="http://purl.org/dc/dcmitype/StillImage" />
        <dc:title></dc:title>
      </cc:Work>
    </rdf:RDF>
  </metadata>
  <g
     inkscape:label="Layer 1"
     inkscape:groupmode="layer"
     id="layer1"
     transform="translate(0,-177.93748)">
    <g
       id="layer1-6"
       inkscape:label="Layer 1"
       transform="translate(52.160756,-47.436009)">
      <g
         id="g4940"
         transform="matrix(1.179256,0,0,1.1738715,-239.18085,-44.256764)">
        <path
           style="opacity:1;vector-effect:none;fill:#ffffff;fill-opacity:1;stroke:#0e0e0e;stroke-width:3;stroke-linecap:round;stroke-linejoin:round;stroke-miterlimit:4;stroke-dasharray:none;stroke-dashoffset:0;stroke-opacity:1"
           d="m 265.10431,231.30427 c -3.71357,0 -6.70352,2.98992 -6.70352,6.70342 v 29.74869 a 15.640483,15.640483 0 0 1 9.08863,-2.93748 15.640483,15.640483 0 0 1 15.6405,15.64048 15.640483,15.640483 0 0 1 -15.6405,15.64049 15.640483,15.640483 0 0 1 -9.08863,-2.92526 v 29.73891 c 0,3.71349 2.98995,6.70341 6.70352,6.70341 h 29.79999 a 15.640482,15.640482 0 0 1 -2.98645,-9.16191 15.640482,15.640482 0 0 1 15.64046,-15.64048 15.640482,15.640482 0 0 1 15.6405,15.64048 15.640482,15.640482 0 0 1 -2.98383,9.16191 h 29.79511 c 3.71342,0 6.70342,-2.98992 6.70342,-6.70341 v -29.75358 a 15.640483,15.640483 0 0 0 9.10563,2.93993 15.640483,15.640483 0 0 0 15.6405,-15.64049 15.640483,15.640483 0 0 0 -15.6405,-15.64048 15.640483,15.640483 0 0 0 -9.10563,2.94726 v -29.75847 c 0,-3.7135 -2.99,-6.70342 -6.70342,-6.70342 z"
           id="rect4513"
           inkscape:connector-curvature="0" />
        <g
           aria-label="A"
           style="font-style:normal;font-weight:normal;font-size:29.15891647px;line-height:125%;font-family:sans-serif;letter-spacing:0px;word-spacing:0px;fill:#000000;fill-opacity:1;stroke:none;stroke-width:0.72897291px;stroke-linecap:butt;stroke-linejoin:miter;stroke-opacity:1"
           id="text4824"
           transform="matrix(-1.193607,0,0,1.193607,470.80822,63.480009)">
          <path
             d="m 138.66924,170.84858 -11.75469,0.0342 -10.04814,43.75885 h -6.73161 l 15.07122,-62.48434 H 114.8865 l -6.73161,-4.51052 39.2962,-0.0683 3.86128,4.61303 -13.15569,-0.13668 15.68431,35.36639 -7.00497,9.26042 -5.06404,-14.27265 -17.58502,0.0427 0.78774,-3.50748 15.85433,-0.1184 z m -3.00701,-5.05725 -4.0663,-13.9416 -3.65626,13.87326 z"
             style="font-style:normal;font-variant:normal;font-weight:normal;font-stretch:normal;font-size:69.98139954px;font-family:Ani;-inkscape-font-specification:Ani;stroke-width:0.72897291px"
             id="path4826"
             inkscape:connector-curvature="0"
             sodipodi:nodetypes="ccccccccccccccccccccc" />
        </g>
      </g>
      <g
         id="g4947"
         transform="rotate(-45,67.034038,123.12303)">
        <path
           style="opacity:1;vector-effect:none;fill:#b154be;fill-opacity:1;stroke:#040404;stroke-width:3.52968192;stroke-linecap:round;stroke-linejoin:round;stroke-miterlimit:4;stroke-dasharray:none;stroke-dashoffset:0;stroke-opacity:1"
           d="m -94.764925,271.63048 c 3.096495,3.09659 8.069373,3.10997 11.151826,0.0265 l 24.784277,-24.78427 a 18.444134,18.359918 45 0 0 5.179451,10.23462 18.444134,18.359918 45 0 0 26.024448,0.0596 18.444134,18.359918 45 0 0 -0.05955,-26.02445 18.444134,18.359918 45 0 0 -10.23452,-5.17955 l 24.782186,-24.78219 c 3.082356,-3.08235 3.071072,-8.05732 -0.02552,-11.15392 l -24.773656,-24.77355 a 18.444134,18.359918 45 0 1 -5.084558,9.9141 18.444134,18.359918 45 0 1 -26.024447,-0.0596 18.444134,18.359918 45 0 1 -0.05955,-26.02445 18.444134,18.359918 45 0 1 9.908105,-5.09055 L -83.96189,119.22721 c -3.096595,-3.0966 -8.071463,-3.10788 -11.153819,-0.0254 L -165.5921,189.6781 c -3.08236,3.08235 -3.06908,8.05523 0.0255,11.15182 l 24.82866,24.82926 a 18.444134,18.359918 45 0 1 5.1046,-10.04836 18.444134,18.359918 45 0 1 26.02435,0.0597 18.444134,18.359918 45 0 1 0.0596,26.02435 18.444134,18.359918 45 0 1 -10.04016,5.11281 z"
           id="rect4513-3"
           inkscape:connector-curvature="0" />
        <g
           id="g4820"
           transform="matrix(-0.08576732,0.08576732,-0.13427435,-0.13427435,160.63502,504.01988)">
          <g
             id="layer0"
             transform="translate(-816.81299,236.44586)">
            <path
               id="path4717"
               d="m 674.2318,1910.7635 v 12.2463 c -3.16181,-0.709 -1.61769,6.7677 -0.73532,5.1564 -1.39705,16.5003 -9.63226,27.7798 -21.32342,34.1608 -11.76464,8.4436 -26.61738,10.1194 -47.05842,9.0236 h -59.55838 c -15.36763,3.9317 -48.82318,-6.961 -49.9997,8.3791 -1.24998,16.5648 -0.36759,34.9989 -0.7353,52.2081 v 3.4776 19.936 c -1.39706,16.6938 2.79408,38.8016 -2.94117,50.2745 h -5.14699 v -1.2891 h -40.4409 c -7.05872,2.0626 -11.02932,1.418 -9.5588,-5.8009 v -50.2744 -18.0024 -0.8994 -49.63 -6.4454 h -0.7352 c -8.38228,-0.5156 -28.74985,-5.2852 -33.08806,1.9336 -4.04408,7.9924 -9.26467,16.0492 -13.97048,21.9145 -4.41168,7.928 -9.48521,15.0824 -14.70579,22.5591 -5.147,6.2521 -9.41162,15.0823 -14.70579,20.6255 -4.77928,7.4123 -10.14694,14.3088 -15.44099,21.27 -5.44114,6.4454 -10.51466,14.5667 -16.17643,19.9809 -0.51467,10.9572 -18.16162,7.0899 -30.88211,7.7345 -9.33815,-2.836 -34.33793,6.4454 -30.14679,-7.7345 v -32.8718 -33.5164 -32.8718 -32.2272 -33.5164 -32.2272 42.3681 -32.8718 c 3.74995,-9.5392 -7.27937,-32.485 8.08816,-32.2272 14.92633,4.4474 46.98495,-7.09 47.79373,8.3791 v 49.6299 -25.6099 50.2745 49.6299 c -3.38234,26.4264 8.97054,4.3185 11.76464,-1.9336 6.32351,-7.9924 11.9117,-17.7895 16.91163,-25.7817 6.02939,-8.3148 11.61757,-18.1118 16.17643,-26.4264 8.01457,-6.3165 6.3234,-21.0122 22.05863,-20.6255 14.48514,-0.065 31.76448,0.8379 43.38206,-0.6446 5.58819,1.2892 3.82343,-5.4786 3.67636,-7.7344 v -57.3646 -12.1863 -56.0755 c 5.00005,-14.7601 -7.57338,-44.6024 8.82348,-48.9854 14.04406,2.9649 41.17622,-1.998 47.79385,3.8673 v 48.3409 47.6963 c 0.88227,16.1781 -0.0739,-10.8883 1.47053,3.8073 v 43.829 c 3.67647,11.4085 -8.01469,37.4481 8.82347,35.45 16.17631,-0.4511 29.63212,1.9336 44.11737,0.6446 14.04395,0.065 29.63212,1.0313 41.91143,-0.6446 18.08813,-0.4511 32.42622,-56.8138 30.8821,-74.2165 1.91183,-4.9631 0.36771,-12.8909 0.73532,-19.3364 h -0.73532 c 4.3382,-13.1487 -7.35284,-38.8661 5.14711,-41.2508 14.92633,3.7383 30.88211,7.1544 43.38195,10.3127 -0.0739,1.9336 4.19126,2.0625 4.41179,3.8672 v 7.09 c 0.36761,17.725 -0.51466,89.17 0.73532,105.1548 z"
               inkscape:connector-curvature="0"
               style="fill:#010101;stroke:#010101;stroke-width:0.51631749;stroke-linecap:round;stroke-linejoin:round"
               sodipodi:nodetypes="ccccccccccccccccccccccccccccccccccccccccccccccccccccccccccccccccccccc" />
            <path
               id="path4747"
               d="m 193.8081,1586.4225 h 52.20113 c 7.40159,-1.547 7.16791,3.0937 8.57032,6.4454 l 0.7792,1.9336 v 0.6446 h -0.7792 v 31.5826 c 0.46753,9.4105 -0.77905,22.0435 0.7792,29.6492 -3.42819,8.0568 3.27221,8.9592 10.90763,8.379 h 49.86397 49.08462 l -66.22542,-1.9336 h 49.08477 49.86381 l 165.95335,1.9336 h 49.86381 c 16.28359,0.1934 35.21633,-0.7734 48.30557,0.6446 h -49.86382 -50.64302 l -166.73223,-1.9336 h -49.08493 c 18.38737,1.289 40.35861,0.5156 58.43429,1.289 l 174.5235,1.9337 h 58.43429 57.65508 c 6.85624,-0.2578 11.76469,-1.0958 9.34954,-7.7345 2.02563,-9.346 0.77905,-22.4947 0.77905,-31.5828 v -32.2272 c -5.92133,-14.051 14.56965,-6.0588 24.9319,-8.3791 h 38.17715 c 2.49314,0.1934 0.85704,5.4142 0.77905,5.8009 v 1.289 h -0.77905 v 56.72 c 0.77905,18.6919 -0.0782,39.4462 0.77905,56.7199 v 1.2892 c 3.42819,14.6312 -25.78896,3.6094 -37.39794,7.7345 h -48.30556 -49.08477 -48.30572 -49.08461 c -19.63393,-3.8028 -140.24223,-1.9336 -142.57953,39.5121 -4.83061,8.8303 -9.34953,19.852 -14.02428,29.0045 0.15584,12.4397 -15.97192,14.7601 -30.38573,9.6681 1.86994,-3.4161 -5.45396,-1.289 -6.23286,-1.9336 0.31153,-1.7403 -5.99933,-0.3222 -7.01221,-0.6446 v 0.6446 c -12.38804,-3.6094 -48.07188,-0.8379 -28.82748,-16.1136 6.85624,-11.9886 14.25783,-48.4712 19.47795,-59.4929 6.07717,-2.9005 -3.66187,-4.8986 -8.57032,-3.2228 -10.98562,-1.9981 91.23531,0.9669 77.91223,0.6446 h -39.73525 c -10.98562,-1.547 -26.87967,-0.5156 -38.17698,-0.6446 h -38.17698 -38.9562 -38.17699 v 0.6446 h -2.33731 c -15.11501,4.5762 -7.40173,-12.5042 -9.34952,-21.27 v -31.5827 -31.5827 -31.5827 c 2.10362,-0.3867 0.38952,-5.6076 0.7792,-5.8009 3.03851,-1.8047 -2.33745,-5.672 1.55825,-6.4454 z"
               inkscape:connector-curvature="0"
               style="fill:#020202;stroke:#020202;stroke-width:0.53148478;stroke-linecap:round;stroke-linejoin:round"
               sodipodi:nodetypes="ccccccccccccccccccccccccccsccccccccccccccccccccccccccccccccccccc" />
          </g>
        </g>
      </g>
    </g>
  </g>
</svg>
